<svg width="93" height="72" viewBox="0 0 93 72" fill="none" xmlns="http://www.w3.org/2000/svg">
<path d="M38.3058 15.2259C39.1674 10.1101 38.8439 4.15756 34.3222 1.61433C32.4945 0.586344 30.3851 0 28.1388 0C21.1626 0 15.5073 5.65535 15.5073 12.6316C15.5073 16.8365 17.5618 20.5615 20.7219 22.8574C20.9287 23.0077 20.8156 23.3684 20.5599 23.3684C9.39793 23.3684 0.349365 32.417 0.349365 43.5789C0.349365 54.7409 9.39793 63.7895 20.5599 63.7895C25.4432 63.7895 29.922 62.0576 33.4156 59.1744C33.5755 59.0425 33.8231 59.1611 33.8231 59.3684C33.8231 66.3446 39.4784 72 46.4546 72C53.4309 72 59.0862 66.3446 59.0862 59.3684C59.0862 59.1611 59.3338 59.0425 59.4937 59.1744C62.9872 62.0576 67.466 63.7895 72.3494 63.7895C83.5113 63.7895 92.5599 54.7409 92.5599 43.5789C92.5599 32.417 83.5113 23.3684 72.3494 23.3684C72.0937 23.3684 71.9805 23.0077 72.1874 22.8574C75.3474 20.5615 77.402 16.8365 77.402 12.6316C77.402 5.65535 71.7467 0 64.7704 0C62.5241 0 60.4148 0.586342 58.5871 1.61432C54.0654 4.15755 53.7419 10.1101 54.6035 15.2259L59.0951 41.8947C60.4121 49.7145 54.3845 56.8421 46.4546 56.8421C38.5247 56.8421 32.4972 49.7145 33.8142 41.8947L38.3058 15.2259Z" fill="black"/>
</svg>
